<?xml version="1.0" encoding="UTF-8" standalone="no"?>
<!-- Created with Inkscape (http://www.inkscape.org/) -->

<svg
   xmlns:dc="http://purl.org/dc/elements/1.1/"
   xmlns:cc="http://creativecommons.org/ns#"
   xmlns:rdf="http://www.w3.org/1999/02/22-rdf-syntax-ns#"
   xmlns:svg="http://www.w3.org/2000/svg"
   xmlns="http://www.w3.org/2000/svg"
   xmlns:sodipodi="http://sodipodi.sourceforge.net/DTD/sodipodi-0.dtd"
   xmlns:inkscape="http://www.inkscape.org/namespaces/inkscape"
   version="1.1"
   width="100"
   height="100"
   viewBox="0 0 50.000001 50"
   id="svg2"
   xml:space="preserve"
   style="fill:#000000"
   inkscape:version="0.48.4 r9939"
   sodipodi:docname="tidy_ex_logo.svg"
   inkscape:export-filename="/home/frank/dev/github/tidy_ex/tidy_ex_logo.png"
   inkscape:export-xdpi="72"
   inkscape:export-ydpi="72"><sodipodi:namedview
     pagecolor="#ffffff"
     bordercolor="#666666"
     borderopacity="1"
     objecttolerance="10"
     gridtolerance="10"
     guidetolerance="10"
     inkscape:pageopacity="0"
     inkscape:pageshadow="2"
     inkscape:window-width="1280"
     inkscape:window-height="996"
     id="namedview9"
     showgrid="false"
     fit-margin-top="0"
     fit-margin-left="0"
     fit-margin-right="0"
     fit-margin-bottom="0"
     inkscape:zoom="4.9153865"
     inkscape:cx="41.51196"
     inkscape:cy="33.288342"
     inkscape:window-x="1280"
     inkscape:window-y="0"
     inkscape:window-maximized="1"
     inkscape:current-layer="svg2" /><metadata
     id="metadata16"><rdf:RDF><cc:Work
         rdf:about=""><dc:format>image/svg+xml</dc:format><dc:type
           rdf:resource="http://purl.org/dc/dcmitype/StillImage" /><dc:title></dc:title></cc:Work></rdf:RDF></metadata><defs
     id="defs14" /><rect
     style="fill:#ffffff;fill-opacity:1;stroke:none"
     id="rect2986"
     width="50"
     height="50"
     x="0"
     y="9.0734864e-07"
     inkscape:export-xdpi="43.713909"
     inkscape:export-ydpi="43.713909" /><g
     transform="matrix(0.52069775,0,0,0.52069775,-0.92922377,-1.0351521)"
     id="g4"><path
       d="M 90.633,4.559 C 90.393,3.662 89.819,2.913 89.018,2.451 88.495,2.148 87.897,1.988 87.291,1.988 c -1.24,0 -2.395,0.664 -3.012,1.733 L 62.828,40.875 c -0.42,-0.122 -0.857,-0.189 -1.299,-0.189 -1.682,0 -3.246,0.9 -4.082,2.349 l -2.479,4.296 c -0.131,-0.006 -0.264,-0.018 -0.391,-0.018 -2.021,0 -3.628,0.685 -4.646,1.981 -5.706,7.267 -12.174,12.951 -19.022,18.968 -2.822,2.48 -5.74,5.045 -8.638,7.756 l -0.722,0.678 0.668,0.729 c 6.491,7.088 25.606,18.125 35.265,20.363 l 0.973,0.225 0.227,-0.973 c 0.9,-3.863 1.66,-7.67 2.396,-11.354 1.789,-8.941 3.477,-17.387 6.918,-25.963 0.686,-1.707 0.352,-3.641 -0.969,-5.592 -0.021,-0.033 -0.049,-0.066 -0.072,-0.1 L 69.34,49.9 c 1.035,-1.791 0.734,-3.976 -0.563,-5.449 L 90.289,7.191 c 0.463,-0.8 0.584,-1.734 0.344,-2.632 z m -24.492,54.42 c -3.51,8.748 -5.217,17.281 -7.023,26.316 -0.67,3.35 -1.359,6.803 -2.154,10.297 -1.248,-0.344 -2.643,-0.828 -4.133,-1.414 L 56.417,80.377 54.481,79.875 50.963,93.41 c -2.929,-1.256 -6.135,-2.854 -9.319,-4.617 l 4.107,-7.115 -1.731,-1 -4.118,7.133 c -3.336,-1.916 -6.581,-3.98 -9.388,-5.992 L 43.44,68.348 41.997,66.963 28.889,80.623 c -1.774,-1.342 -3.316,-2.643 -4.51,-3.834 2.632,-2.439 5.282,-4.768 7.851,-7.025 6.92,-6.08 13.456,-11.824 19.275,-19.236 0.634,-0.807 1.667,-1.217 3.073,-1.217 0.219,0 0.445,0.011 0.674,0.031 l 0.064,0.007 c 0.051,0.005 0.104,0.015 0.156,0.021 0.779,0.087 1.602,0.284 2.432,0.565 0.061,0.021 0.121,0.039 0.182,0.061 0.383,0.136 0.766,0.291 1.146,0.461 0.078,0.034 0.154,0.07 0.232,0.106 0.381,0.176 0.758,0.365 1.129,0.572 0.051,0.027 0.102,0.059 0.152,0.088 0.365,0.209 0.725,0.43 1.072,0.662 0.031,0.021 0.064,0.041 0.096,0.063 0.365,0.248 0.715,0.51 1.051,0.779 0.047,0.037 0.094,0.076 0.141,0.113 0.33,0.271 0.645,0.555 0.938,0.844 0.035,0.033 0.068,0.068 0.102,0.104 0.299,0.301 0.58,0.609 0.828,0.926 0.141,0.178 0.275,0.357 0.398,0.539 0.649,0.958 1.309,2.382 0.77,3.726 z M 67.609,48.9 65.589,52.397 C 65.542,52.35 65.487,52.305 65.439,52.256 65.298,52.119 65.152,51.983 65.003,51.848 64.439,51.334 63.827,50.849 63.177,50.398 63.144,50.376 63.113,50.352 63.079,50.33 62.823,50.155 62.563,49.987 62.3,49.824 62.298,49.823 62.296,49.822 62.294,49.821 61.218,49.159 60.079,48.603 58.929,48.182 58.865,48.159 58.8,48.136 58.736,48.113 58.494,48.028 58.254,47.946 58.011,47.874 57.886,47.836 57.763,47.806 57.64,47.771 57.462,47.723 57.283,47.666 57.107,47.625 l 2.072,-3.591 c 0.48,-0.832 1.381,-1.349 2.35,-1.349 0.414,0 0.816,0.111 1.186,0.295 l 3.799,2.169 0.105,0.061 c 1.291,0.745 1.735,2.4 0.99,3.69 z M 88.557,6.191 67.178,43.222 64.631,41.751 86.012,4.721 c 0.387,-0.671 1.33,-0.932 2.008,-0.538 0.701,0.405 0.943,1.306 0.537,2.008 z"
       id="path6"
       inkscape:connector-curvature="0" /><path
       d="m 28.935,50.145 c 2.676,0 4.854,-2.177 4.854,-4.854 0,-2.677 -2.177,-4.854 -4.854,-4.854 -2.677,0 -4.854,2.177 -4.854,4.854 0,2.677 2.177,4.854 4.854,4.854 z m 0,-7.707 c 1.573,0 2.854,1.28 2.854,2.854 0,1.574 -1.28,2.854 -2.854,2.854 -1.574,0 -2.854,-1.28 -2.854,-2.854 0,-1.574 1.28,-2.854 2.854,-2.854 z"
       id="path8"
       inkscape:connector-curvature="0" /><path
       d="m 18.665,90.469 c -1.415,-1.52 -1.33,-3.906 0.188,-5.32 1.049,-0.979 2.535,-1.277 3.88,-0.773 l 0.697,-1.875 c -2.058,-0.766 -4.334,-0.313 -5.94,1.184 -0.287,0.268 -0.538,0.559 -0.758,0.865 -1.958,-1.24 -3.21,-3.4 -3.21,-5.785 0,-3.785 3.079,-6.863 6.862,-6.863 0.896,0 1.769,0.172 2.596,0.512 l 0.758,-1.852 c -1.069,-0.438 -2.197,-0.66 -3.354,-0.66 -1.802,0 -3.479,0.545 -4.879,1.473 -2.636,-1.635 -4.259,-4.48 -4.259,-7.621 0,-4.957 4.033,-8.99 8.99,-8.99 2.431,0 4.72,0.979 6.405,2.693 -0.377,0.93 -0.59,1.941 -0.59,3.004 0,1.703 0.559,3.395 1.573,4.766 l 1.607,-1.191 C 28.47,63.009 28.05,61.739 28.05,60.462 c 0,-3.311 2.692,-6.002 6.001,-6.002 2.103,0 4.078,1.121 5.154,2.926 l 1.718,-1.025 c -1.436,-2.406 -4.069,-3.9 -6.872,-3.9 -2.613,0 -4.931,1.264 -6.392,3.207 -2.015,-1.854 -4.643,-2.902 -7.425,-2.902 -6.06,0 -10.99,4.93 -10.99,10.99 0,3.623 1.752,6.943 4.659,8.984 -1.474,1.584 -2.383,3.699 -2.383,6.027 0,3.168 1.704,6.035 4.359,7.607 -0.512,1.867 -0.093,3.943 1.319,5.461 1.134,1.217 2.674,1.832 4.22,1.832 1.408,0 2.819,-0.512 3.928,-1.543 l 0.046,-0.045 -1.41,-1.42 c -1.516,1.413 -3.903,1.327 -5.317,-0.19 z"
       id="path10"
       inkscape:connector-curvature="0" /></g></svg>